<?xml version="1.0" encoding="utf-8"?>
<!-- Generator: Adobe Illustrator 16.0.0, SVG Export Plug-In . SVG Version: 6.00 Build 0)  -->
<!DOCTYPE svg PUBLIC "-//W3C//DTD SVG 1.1//EN" "http://www.w3.org/Graphics/SVG/1.1/DTD/svg11.dtd">
<svg version="1.1" id="Layer_1" xmlns="http://www.w3.org/2000/svg" xmlns:xlink="http://www.w3.org/1999/xlink" x="0px" y="0px"
	 width="172px" height="200px" viewBox="-416.34 287.173 172 200" enable-background="new -416.34 287.173 172 200"
	 xml:space="preserve">
<g>
	<path fill="#698000" stroke="#000000" stroke-width="2" stroke-linecap="round" stroke-linejoin="round" d="M-381.898,318.115
		c0.006,25.82-20.925,46.756-46.744,46.755c-25.82-0.001-46.749-20.938-46.739-46.76c-0.007-25.82,20.924-46.754,46.744-46.753
		S-381.888,292.296-381.898,318.115z"/>
	<path fill-opacity="0.3137" d="M-384.721,302.08c0.031,0.717-0.004,1.45,0.053,2.174c2.83,36.477-20.939,54.841-46.742,54.84
		c-20.168-0.001-39.93-18.749-43.925-38.814c1.131,24.799,21.621,44.581,46.698,44.582c25.801,0.002,46.739-20.936,46.741-46.737
		C-381.896,312.49-382.893,307.083-384.721,302.08z"/>
</g>
</svg>
