<?xml version="1.0" encoding="utf-8"?>
<!-- Generator: Adobe Illustrator 16.0.0, SVG Export Plug-In . SVG Version: 6.00 Build 0)  -->
<!DOCTYPE svg PUBLIC "-//W3C//DTD SVG 1.1//EN" "http://www.w3.org/Graphics/SVG/1.1/DTD/svg11.dtd">
<svg version="1.1" id="Layer_1" xmlns="http://www.w3.org/2000/svg" xmlns:xlink="http://www.w3.org/1999/xlink" x="0px" y="0px"
	 width="172px" height="200px" viewBox="-416.34 287.173 172 200" enable-background="new -416.34 287.173 172 200"
	 xml:space="preserve">
<g transform="translate(-200.076,-237.528)">
	<path fill="#698000" stroke="#000000" stroke-width="2" d="M-220.859,525.598c24.619-20.595,26.952,59.164,47.699,47.262
		c11.142-7.874,7.707-15.62,5.3-20.107c-3.354-6.257-6.614-8.805-1.917-8.589c3.574,0.163,20.693,14.633,5.898,29.889
		c-20.579,21.222-29.928,3.441-52.319,18.906C-235.233,606.104-220.633,525.921-220.859,525.598L-220.859,525.598z"/>
	<path fill-opacity="0.3137" d="M-157.223,561.684c-1.142,2.051-2.519,5.787-4.599,7.933c-20.579,21.222-33.523,7.448-50.341,19.013
		c-7.743,5.326-9.914,5.458-9.795,3.701c-2.6,4.378-3.989,8.671,8.026,0.37c22.393-15.465,31.73,2.45,52.099-20.856
		C-158.337,568.239-158.249,564.955-157.223,561.684z M-171.302,544.228c-1.363,1.366,1.247,4.324,2.474,6.284
		c1.604,3.954,5.653,7.17-0.03,18.109C-159.897,562.697-162.855,549.517-171.302,544.228L-171.302,544.228z"/>
</g>
<g>
	<path fill="#698000" stroke="#000000" stroke-width="2" stroke-linecap="round" stroke-linejoin="round" d="M-381.898,318.115
		c0.006,25.82-20.925,46.756-46.744,46.755c-25.82-0.001-46.749-20.938-46.739-46.76c-0.007-25.82,20.924-46.754,46.744-46.753
		S-381.888,292.296-381.898,318.115z"/>
	<path fill-opacity="0.3137" d="M-384.721,302.08c0.031,0.717-0.004,1.45,0.053,2.174c2.83,36.477-20.939,54.841-46.742,54.84
		c-20.168-0.001-39.93-18.749-43.925-38.814c1.131,24.799,21.621,44.581,46.698,44.582c25.801,0.002,46.739-20.936,46.741-46.737
		C-381.896,312.49-382.893,307.083-384.721,302.08z"/>
</g>
<g>
	<path fill-opacity="0.3137" d="M-405.157,251.141c0.55,3.002,1.137,6.186,1.137,9.49c0,17.773-17.295,32.2-25.677,32.2
		c-6.496,0-19.168-9.346-23.862-22.265c2.39,15.834,17.938,28.081,25.372,28.081c8.383,0,25.679-14.429,25.679-32.201
		C-402.509,260.907-403.58,255.695-405.157,251.141z"/>
	<path fill="#FFFFFF" stroke="#000000" stroke-width="2" stroke-linejoin="round" d="M-421.426,283.75
		c-1.658,3.673,8.04,15.602,9.67,13.62c1.631-1.98,1.828-13.922-0.922-16.118C-415.267,279.186-419.685,279.885-421.426,283.75z"/>
	<path fill="#FFFFFF" stroke="#000000" stroke-width="2" stroke-linejoin="round" d="M-435.851,283.75
		c1.657,3.673-8.041,15.602-9.67,13.62c-1.632-1.98-1.828-13.922,0.922-16.118C-442.011,279.186-437.594,279.885-435.851,283.75z"/>
	<path fill-opacity="0.3137" d="M-435.853,283.745c1.657,3.673-8.044,15.61-9.676,13.629c-0.156-0.188-0.292-0.473-0.422-0.829
		c2.219,0.687,10.023-11.254,8.107-14.619c-0.264-0.46-0.569-0.869-0.896-1.226C-437.555,281.279-436.514,282.281-435.853,283.745
		L-435.853,283.745z"/>
	<path fill="#698000" stroke="#000000" stroke-width="2" stroke-linecap="round" stroke-linejoin="round" d="M-405.22,247.378
		c2.483-1.611,4.128-4.409,4.126-7.59c0.002-4.996-4.049-9.047-9.043-9.047c-2.616,0-4.972,1.112-6.622,2.888
		c-3.421-1.825-7.358-2.849-11.752-2.849c-4.537,0-8.549,1.024-11.997,2.856c-1.651-1.779-4.011-2.896-6.631-2.896
		c-4.996,0-9.045,4.051-9.045,9.047c0,3.194,1.657,6.001,4.158,7.61c-1.993,4.457-3.648,10.023-3.197,15.583
		c1.437,17.688,18.317,32.2,26.712,32.2c8.72,0,27.025-14.432,26.711-32.2C-401.908,256.896-403.449,251.542-405.22,247.378z"/>
	<path fill-opacity="0.3137" d="M-404.549,247.668c0.572,3.003,1.184,6.187,1.184,9.492c0,17.773-17.992,32.199-26.712,32.199
		c-6.758,0-19.94-9.347-24.824-22.266c2.484,15.834,18.659,28.081,26.396,28.081c8.72,0,26.712-14.427,26.712-32.2
		C-401.795,257.436-402.909,252.221-404.549,247.668z"/>
	<path fill="#FFFFFF" stroke="#000000" stroke-width="2" stroke-linecap="round" stroke-linejoin="round" d="M-440.338,240.25
		c0.002,3.658-2.966,6.627-6.624,6.627c-3.661,0-6.626-2.968-6.626-6.627c0-3.66,2.965-6.627,6.626-6.627
		C-443.304,233.623-440.336,236.589-440.338,240.25z"/>
	<path fill="#FFFFFF" stroke="#000000" stroke-width="2" stroke-linecap="round" stroke-linejoin="round" d="M-416.94,240.25
		c-0.001,3.658,2.966,6.627,6.625,6.627s6.626-2.968,6.625-6.627c0.001-3.66-2.965-6.627-6.625-6.627
		C-413.974,233.623-416.941,236.589-416.94,240.25z"/>
	<path d="M-423.296,285.649c-0.748,1.297-2.121,1.904-3.065,1.357c-0.946-0.545-1.104-2.039-0.355-3.335
		c0.748-1.296,2.121-1.904,3.065-1.359C-422.706,282.859-422.547,284.351-423.296,285.649z"/>
	<path d="M-433.982,285.649c0.749,1.297,2.122,1.904,3.067,1.357c0.945-0.545,1.104-2.039,0.354-3.335s-2.12-1.904-3.065-1.359
		C-434.571,282.859-434.73,284.351-433.982,285.649z"/>
</g>
<g>
	<path fill="#698000" stroke="#000000" stroke-width="2" stroke-linecap="round" stroke-linejoin="round" d="M-457.051,361.103
		c-0.003,7.401,5.998,8.346,13.398,8.347c7.401,0,13.401-0.942,13.399-8.346c0.003-7.401-6.248-11.488-13.398-13.404
		C-454.774,344.719-457.053,353.7-457.051,361.103z"/>
	<path fill="#FFFFFF" stroke="#000000" stroke-width="2" stroke-linecap="round" stroke-linejoin="round" d="M-433.221,365.279
		c0.536,2-1.062,2.701-3.115,3.251c-2.057,0.551-3.789,0.742-4.324-1.258c-0.536-2,0.695-4.067,2.75-4.618
		S-433.756,363.278-433.221,365.279z"/>
	<path fill="#FFFFFF" stroke="#000000" stroke-width="2" stroke-linecap="round" stroke-linejoin="round" d="M-446.745,367.445
		c-0.537,2-2.271,1.808-4.324,1.258c-2.055-0.55-3.652-1.252-3.116-3.252s2.637-3.175,4.691-2.624
		C-447.442,363.376-446.209,365.445-446.745,367.445z"/>
	<path fill="#FFFFFF" stroke="#000000" stroke-width="2" stroke-linecap="round" stroke-linejoin="round" d="M-440.127,367.115
		c0.001,2.071-1.725,2.335-3.852,2.335s-3.852-0.264-3.851-2.335c0.001-2.07,1.725-3.749,3.851-3.749
		C-441.851,363.365-440.126,365.044-440.127,367.115L-440.127,367.115z"/>
	<path fill-opacity="0.3137" d="M-439.409,349.165c1.832,2.403,2.958,5.403,2.957,9.108c0.002,8.754-6,9.872-13.402,9.871
		c-1.146,0-2.254-0.034-3.313-0.111c2.428,1.18,5.792,1.418,9.515,1.418c7.402,0,13.404-0.95,13.402-8.352
		C-430.249,355.217-434.2,351.435-439.409,349.165z"/>
</g>
<g>
	<path fill="#698000" stroke="#000000" stroke-width="2" stroke-linecap="round" stroke-linejoin="round" d="M-400.226,361.106
		c0.001,7.402-5.998,8.345-13.399,8.344c-7.401,0-13.401-0.942-13.398-8.346c-0.003-7.401,6.249-11.488,13.398-13.402
		C-402.502,344.722-400.224,353.704-400.226,361.106z"/>
	<path fill="#FFFFFF" stroke="#000000" stroke-width="2" stroke-linecap="round" stroke-linejoin="round" d="M-402.869,365.281
		c0.537,2-1.063,2.7-3.116,3.25c-2.055,0.551-3.788,0.742-4.324-1.258c-0.535-2,0.695-4.066,2.749-4.618
		C-405.505,362.105-403.406,363.28-402.869,365.281L-402.869,365.281z"/>
	<path fill="#FFFFFF" stroke="#000000" stroke-width="2" stroke-linecap="round" stroke-linejoin="round" d="M-416.396,367.446
		c-0.533,2-2.268,1.809-4.322,1.258c-2.056-0.55-3.651-1.251-3.116-3.251c0.537-2,2.637-3.175,4.69-2.625
		C-417.089,363.378-415.86,365.446-416.396,367.446z"/>
	<path fill="#FFFFFF" stroke="#000000" stroke-width="2" stroke-linecap="round" stroke-linejoin="round" d="M-409.775,367.116
		c0,2.07-1.725,2.334-3.852,2.334s-3.853-0.264-3.852-2.334c0.001-2.069,1.725-3.75,3.852-3.75S-409.775,365.047-409.775,367.116
		L-409.775,367.116z"/>
	<path fill-opacity="0.3137" d="M-407.58,347.314c3.447,2.661,4.354,8.053,4.354,12.81c0.001,7.66-6.204,8.64-13.86,8.64
		c-1.662-0.001-3.246-0.055-4.724-0.204c2.265,0.725,5.1,0.888,8.181,0.888c7.401,0,13.403-0.939,13.401-8.342
		C-400.226,355.305-401.625,348.541-407.58,347.314z"/>
</g>
<g>
	<path fill="#698000" stroke="#000000" stroke-width="2" stroke-linecap="round" stroke-linejoin="round" d="M-438.156,308.355
		c2.447,4.238,0.995,9.661-3.244,12.108c-4.24,2.447-9.662,0.995-12.109-3.244s-0.995-9.661,3.244-12.108
		C-446.026,302.662-440.604,304.115-438.156,308.355z"/>
	<path fill="#FFFFFF" stroke="#000000" stroke-width="2" stroke-linecap="round" stroke-linejoin="round" d="M-443.041,314.908
		c1.661,0.959,2.324,2.919,1.48,4.379c-0.842,1.46-2.871,1.864-4.531,0.905c-1.66-0.958-2.323-2.919-1.481-4.378
		S-444.702,313.95-443.041,314.908z"/>
	<path fill="#FFFFFF" stroke="#000000" stroke-width="2" stroke-linecap="round" stroke-linejoin="round" d="M-439.215,308.282
		c1.661,0.958,2.323,2.918,1.481,4.377c-0.843,1.46-2.872,1.864-4.533,0.906c-1.659-0.959-2.322-2.919-1.48-4.379
		C-442.906,307.728-440.875,307.323-439.215,308.282z"/>
	<path fill="#FFFFFF" stroke="#000000" stroke-width="2" stroke-linecap="round" stroke-linejoin="round" d="M-439.49,312.534
		c1.661,0.958,2.324,2.918,1.482,4.378c-0.845,1.459-2.872,1.864-4.533,0.905c-1.66-0.958-2.323-2.918-1.481-4.378
		C-443.178,311.981-441.15,311.575-439.49,312.534z"/>
</g>
<g>
	<path fill="#698000" stroke="#000000" stroke-width="2" stroke-linecap="round" stroke-linejoin="round" d="M-403.769,317.219
		c-2.447,4.239-7.867,5.692-12.108,3.244c-4.239-2.447-5.692-7.869-3.244-12.108s7.869-5.692,12.109-3.244
		C-402.774,307.558-401.321,312.98-403.769,317.219L-403.769,317.219z"/>
	<path fill="#FFFFFF" stroke="#000000" stroke-width="2" stroke-linecap="round" stroke-linejoin="round" d="M-413.944,315.077
		c-1.66,0.959-2.323,2.919-1.48,4.379c0.843,1.459,2.872,1.864,4.531,0.906c1.661-0.96,2.324-2.919,1.481-4.379
		C-410.252,314.524-412.282,314.119-413.944,315.077z"/>
	<path fill="#FFFFFF" stroke="#000000" stroke-width="2" stroke-linecap="round" stroke-linejoin="round" d="M-417.77,308.45
		c-1.66,0.959-2.323,2.919-1.48,4.378c0.842,1.459,2.871,1.865,4.531,0.906s2.323-2.919,1.481-4.378
		C-414.078,307.897-416.109,307.491-417.77,308.45z"/>
	<path fill="#FFFFFF" stroke="#000000" stroke-width="2" stroke-linecap="round" stroke-linejoin="round" d="M-417.495,312.702
		c-1.661,0.96-2.324,2.919-1.481,4.379s2.871,1.864,4.531,0.905c1.661-0.958,2.324-2.919,1.482-4.378
		S-415.834,311.743-417.495,312.702L-417.495,312.702z"/>
</g>
<path d="M-443.099,241.419c0.002,1.222-0.987,2.209-2.209,2.209c-1.219,0-2.209-0.987-2.208-2.209c0.002-1.22,0.988-2.21,2.208-2.21
	C-444.086,239.209-443.097,240.199-443.099,241.419z"/>
<path d="M-414.178,241.419c0,1.222,0.988,2.209,2.208,2.209c1.221,0,2.21-0.987,2.208-2.209c0-1.22-0.987-2.21-2.208-2.21
	S-414.178,240.199-414.178,241.419z"/>
<g>
	<path fill="#00B0F0" stroke="#000000" d="M-464.396,240.091h-4.068v-5.34h4.068V240.091z"/>
	<path fill="#00B0F0" stroke="#000000" d="M-392.314,240.091h4.072v-5.34h-4.072V240.091z"/>
	<path fill="#0077BD" stroke="#000000" d="M-456.386,234.327c0,0,5.739,7.176-0.719,23.68c0,0-16.503-0.719-15.067-8.61
		C-472.172,249.396-472.168,234.327-456.386,234.327"/>
	<path fill="#EDBA54" stroke="#000000" d="M-461.374,235.569c0,0,2.701,8.108-0.678,17.345c0,0,1.048-10.15-2.185-16.07
		C-464.237,236.842-463.272,236.088-461.374,235.569"/>
	<path fill="#BEC0C2" stroke="#000000" d="M-471.347,250.242c0,0-1.313-0.842,0.134-3.397c0,0-0.503-1.783-1.276-0.169
		c0,0-0.706,1.245-0.237,3.601C-472.728,250.276-471.885,251.486-471.347,250.242"/>
	<path fill="#737577" stroke="#000000" d="M-457.433,234.308c0,0,0.882-2.893,2.732-0.079c0,0,5.384,9.403-1.527,24.188
		c0,0-1.364,1.364-2.01-0.404C-458.238,258.012-451.165,244.272-457.433,234.308"/>
	<path fill="#0077BD" stroke="#000000" d="M-400.321,234.327c0,0-5.74,7.176,0.716,23.68c0,0,16.504-0.719,15.069-8.61
		C-384.535,249.396-384.535,234.327-400.321,234.327"/>
	<path fill="#EDBA54" stroke="#000000" d="M-395.331,235.569c0,0-2.702,8.108,0.676,17.345c0,0-1.045-10.15,2.185-16.07
		C-392.472,236.842-393.436,236.088-395.331,235.569"/>
	<path fill="#BEC0C2" stroke="#000000" d="M-385.36,250.242c0,0,1.313-0.842-0.136-3.397c0,0,0.505-1.783,1.278-0.169
		c0,0,0.706,1.245,0.236,3.601C-383.98,250.276-384.821,251.486-385.36,250.242"/>
	<path fill="#737577" stroke="#000000" d="M-399.275,234.308c0,0-0.883-2.893-2.729-0.079c0,0-5.387,9.403,1.523,24.188
		c0,0,1.366,1.364,2.011-0.404C-398.47,258.012-405.542,244.272-399.275,234.308"/>
	<path fill="#0077BD" stroke="#000000" d="M-465.895,234.687c0,0,33.365-59.735,76.688,1.347
		C-389.207,236.033-426.609,166.878-465.895,234.687"/>
</g>
</svg>
