<?xml version="1.0" encoding="utf-8"?>
<!-- Generator: Adobe Illustrator 16.0.0, SVG Export Plug-In . SVG Version: 6.00 Build 0)  -->
<!DOCTYPE svg PUBLIC "-//W3C//DTD SVG 1.1//EN" "http://www.w3.org/Graphics/SVG/1.1/DTD/svg11.dtd">
<svg version="1.1" id="Layer_1" xmlns="http://www.w3.org/2000/svg" xmlns:xlink="http://www.w3.org/1999/xlink" x="0px" y="0px"
	 width="172px" height="200px" viewBox="-416.34 287.173 172 200" enable-background="new -416.34 287.173 172 200"
	 xml:space="preserve">
<g>
	<path fill-opacity="0.3137" d="M-405.157,251.141c0.55,3.002,1.137,6.186,1.137,9.49c0,17.773-17.295,32.2-25.677,32.2
		c-6.496,0-19.168-9.346-23.862-22.265c2.39,15.834,17.938,28.081,25.372,28.081c8.383,0,25.679-14.429,25.679-32.201
		C-402.509,260.907-403.58,255.695-405.157,251.141z"/>
	<path fill="#FFFFFF" stroke="#000000" stroke-width="2" stroke-linejoin="round" d="M-421.426,283.75
		c-1.658,3.673,8.04,15.602,9.67,13.62c1.631-1.98,1.828-13.922-0.922-16.118C-415.267,279.186-419.685,279.885-421.426,283.75z"/>
	<path fill="#FFFFFF" stroke="#000000" stroke-width="2" stroke-linejoin="round" d="M-435.851,283.75
		c1.657,3.673-8.041,15.602-9.67,13.62c-1.632-1.98-1.828-13.922,0.922-16.118C-442.011,279.186-437.594,279.885-435.851,283.75z"/>
	<path fill-opacity="0.3137" d="M-435.853,283.745c1.657,3.673-8.044,15.61-9.676,13.629c-0.156-0.188-0.292-0.473-0.422-0.829
		c2.219,0.687,10.023-11.254,8.107-14.619c-0.264-0.46-0.569-0.869-0.896-1.226C-437.555,281.279-436.514,282.281-435.853,283.745
		L-435.853,283.745z"/>
	<path fill="#698000" stroke="#000000" stroke-width="2" stroke-linecap="round" stroke-linejoin="round" d="M-405.22,247.378
		c2.483-1.611,4.128-4.409,4.126-7.59c0.002-4.996-4.049-9.047-9.043-9.047c-2.616,0-4.972,1.112-6.622,2.888
		c-3.421-1.825-7.358-2.849-11.752-2.849c-4.537,0-8.549,1.024-11.997,2.856c-1.651-1.779-4.011-2.896-6.631-2.896
		c-4.996,0-9.045,4.051-9.045,9.047c0,3.194,1.657,6.001,4.158,7.61c-1.993,4.457-3.648,10.023-3.197,15.583
		c1.437,17.688,18.317,32.2,26.712,32.2c8.72,0,27.025-14.432,26.711-32.2C-401.908,256.896-403.449,251.542-405.22,247.378z"/>
	<path fill-opacity="0.3137" d="M-404.549,247.668c0.572,3.003,1.184,6.187,1.184,9.492c0,17.773-17.992,32.199-26.712,32.199
		c-6.758,0-19.94-9.347-24.824-22.266c2.484,15.834,18.659,28.081,26.396,28.081c8.72,0,26.712-14.427,26.712-32.2
		C-401.795,257.436-402.909,252.221-404.549,247.668z"/>
	<path fill="#FFFFFF" stroke="#000000" stroke-width="2" stroke-linecap="round" stroke-linejoin="round" d="M-440.338,240.25
		c0.002,3.658-2.966,6.627-6.624,6.627c-3.661,0-6.626-2.968-6.626-6.627c0-3.66,2.965-6.627,6.626-6.627
		C-443.304,233.623-440.336,236.589-440.338,240.25z"/>
	<path fill="#FFFFFF" stroke="#000000" stroke-width="2" stroke-linecap="round" stroke-linejoin="round" d="M-416.94,240.25
		c-0.001,3.658,2.966,6.627,6.625,6.627s6.626-2.968,6.625-6.627c0.001-3.66-2.965-6.627-6.625-6.627
		C-413.974,233.623-416.941,236.589-416.94,240.25z"/>
	<path d="M-423.296,285.649c-0.748,1.297-2.121,1.904-3.065,1.357c-0.946-0.545-1.104-2.039-0.355-3.335
		c0.748-1.296,2.121-1.904,3.065-1.359C-422.706,282.859-422.547,284.351-423.296,285.649z"/>
	<path d="M-433.982,285.649c0.749,1.297,2.122,1.904,3.067,1.357c0.945-0.545,1.104-2.039,0.354-3.335s-2.12-1.904-3.065-1.359
		C-434.571,282.859-434.73,284.351-433.982,285.649z"/>
</g>
</svg>
