<?xml version="1.0" encoding="utf-8"?>
<!-- Generator: Adobe Illustrator 16.0.0, SVG Export Plug-In . SVG Version: 6.00 Build 0)  -->
<!DOCTYPE svg PUBLIC "-//W3C//DTD SVG 1.1//EN" "http://www.w3.org/Graphics/SVG/1.1/DTD/svg11.dtd">
<svg version="1.1" id="Layer_1" xmlns="http://www.w3.org/2000/svg" xmlns:xlink="http://www.w3.org/1999/xlink" x="0px" y="0px"
	 width="172px" height="200px" viewBox="-416.34 287.173 172 200" enable-background="new -416.34 287.173 172 200"
	 xml:space="preserve">
<g>
	<path fill="#00B0F0" stroke="#000000" d="M-464.396,240.091h-4.068v-5.34h4.068V240.091z"/>
	<path fill="#00B0F0" stroke="#000000" d="M-392.314,240.091h4.072v-5.34h-4.072V240.091z"/>
	<path fill="#0077BD" stroke="#000000" d="M-456.386,234.327c0,0,5.739,7.176-0.719,23.68c0,0-16.503-0.719-15.067-8.61
		C-472.172,249.396-472.168,234.327-456.386,234.327"/>
	<path fill="#EDBA54" stroke="#000000" d="M-461.374,235.569c0,0,2.701,8.108-0.678,17.345c0,0,1.048-10.15-2.185-16.07
		C-464.237,236.842-463.272,236.088-461.374,235.569"/>
	<path fill="#BEC0C2" stroke="#000000" d="M-471.347,250.242c0,0-1.313-0.842,0.134-3.397c0,0-0.503-1.783-1.276-0.169
		c0,0-0.706,1.245-0.237,3.601C-472.728,250.276-471.885,251.486-471.347,250.242"/>
	<path fill="#737577" stroke="#000000" d="M-457.433,234.308c0,0,0.882-2.893,2.732-0.079c0,0,5.384,9.403-1.527,24.188
		c0,0-1.364,1.364-2.01-0.404C-458.238,258.012-451.165,244.272-457.433,234.308"/>
	<path fill="#0077BD" stroke="#000000" d="M-400.321,234.327c0,0-5.74,7.176,0.716,23.68c0,0,16.504-0.719,15.069-8.61
		C-384.535,249.396-384.535,234.327-400.321,234.327"/>
	<path fill="#EDBA54" stroke="#000000" d="M-395.331,235.569c0,0-2.702,8.108,0.676,17.345c0,0-1.045-10.15,2.185-16.07
		C-392.472,236.842-393.436,236.088-395.331,235.569"/>
	<path fill="#BEC0C2" stroke="#000000" d="M-385.36,250.242c0,0,1.313-0.842-0.136-3.397c0,0,0.505-1.783,1.278-0.169
		c0,0,0.706,1.245,0.236,3.601C-383.98,250.276-384.821,251.486-385.36,250.242"/>
	<path fill="#737577" stroke="#000000" d="M-399.275,234.308c0,0-0.883-2.893-2.729-0.079c0,0-5.387,9.403,1.523,24.188
		c0,0,1.366,1.364,2.011-0.404C-398.47,258.012-405.542,244.272-399.275,234.308"/>
	<path fill="#0077BD" stroke="#000000" d="M-465.895,234.687c0,0,33.365-59.735,76.688,1.347
		C-389.207,236.033-426.609,166.878-465.895,234.687"/>
</g>
</svg>
