<?xml version="1.0" encoding="utf-8"?>
<!-- Generator: Adobe Illustrator 16.0.0, SVG Export Plug-In . SVG Version: 6.00 Build 0)  -->
<!DOCTYPE svg PUBLIC "-//W3C//DTD SVG 1.1//EN" "http://www.w3.org/Graphics/SVG/1.1/DTD/svg11.dtd">
<svg version="1.1" id="Layer_1" xmlns="http://www.w3.org/2000/svg" xmlns:xlink="http://www.w3.org/1999/xlink" x="0px" y="0px"
	 width="172px" height="200px" viewBox="-416.34 287.173 172 200" enable-background="new -416.34 287.173 172 200"
	 xml:space="preserve">
<g>
	<path fill="#698000" stroke="#000000" stroke-width="2" stroke-linecap="round" stroke-linejoin="round" d="M-438.156,308.355
		c2.447,4.238,0.995,9.661-3.244,12.108c-4.24,2.447-9.662,0.995-12.109-3.244s-0.995-9.661,3.244-12.108
		C-446.026,302.662-440.604,304.115-438.156,308.355z"/>
	<path fill="#FFFFFF" stroke="#000000" stroke-width="2" stroke-linecap="round" stroke-linejoin="round" d="M-443.041,314.908
		c1.661,0.959,2.324,2.919,1.48,4.379c-0.842,1.46-2.871,1.864-4.531,0.905c-1.66-0.958-2.323-2.919-1.481-4.378
		S-444.702,313.95-443.041,314.908z"/>
	<path fill="#FFFFFF" stroke="#000000" stroke-width="2" stroke-linecap="round" stroke-linejoin="round" d="M-439.215,308.282
		c1.661,0.958,2.323,2.918,1.481,4.377c-0.843,1.46-2.872,1.864-4.533,0.906c-1.659-0.959-2.322-2.919-1.48-4.379
		C-442.906,307.728-440.875,307.323-439.215,308.282z"/>
	<path fill="#FFFFFF" stroke="#000000" stroke-width="2" stroke-linecap="round" stroke-linejoin="round" d="M-439.49,312.534
		c1.661,0.958,2.324,2.918,1.482,4.378c-0.845,1.459-2.872,1.864-4.533,0.905c-1.66-0.958-2.323-2.918-1.481-4.378
		C-443.178,311.981-441.15,311.575-439.49,312.534z"/>
</g>
</svg>
