<?xml version="1.0" encoding="utf-8"?>
<!-- Generator: Adobe Illustrator 16.0.0, SVG Export Plug-In . SVG Version: 6.00 Build 0)  -->
<!DOCTYPE svg PUBLIC "-//W3C//DTD SVG 1.1//EN" "http://www.w3.org/Graphics/SVG/1.1/DTD/svg11.dtd">
<svg version="1.1" id="Layer_1" xmlns="http://www.w3.org/2000/svg" xmlns:xlink="http://www.w3.org/1999/xlink" x="0px" y="0px"
	 width="172px" height="200px" viewBox="-416.34 287.173 172 200" enable-background="new -416.34 287.173 172 200"
	 xml:space="preserve">
<g>
	<path fill="#698000" stroke="#000000" stroke-width="2" stroke-linecap="round" stroke-linejoin="round" d="M-457.051,361.103
		c-0.003,7.401,5.998,8.346,13.398,8.347c7.401,0,13.401-0.942,13.399-8.346c0.003-7.401-6.248-11.488-13.398-13.404
		C-454.774,344.719-457.053,353.7-457.051,361.103z"/>
	<path fill="#FFFFFF" stroke="#000000" stroke-width="2" stroke-linecap="round" stroke-linejoin="round" d="M-433.221,365.279
		c0.536,2-1.062,2.701-3.115,3.251c-2.057,0.551-3.789,0.742-4.324-1.258c-0.536-2,0.695-4.067,2.75-4.618
		S-433.756,363.278-433.221,365.279z"/>
	<path fill="#FFFFFF" stroke="#000000" stroke-width="2" stroke-linecap="round" stroke-linejoin="round" d="M-446.745,367.445
		c-0.537,2-2.271,1.808-4.324,1.258c-2.055-0.55-3.652-1.252-3.116-3.252s2.637-3.175,4.691-2.624
		C-447.442,363.376-446.209,365.445-446.745,367.445z"/>
	<path fill="#FFFFFF" stroke="#000000" stroke-width="2" stroke-linecap="round" stroke-linejoin="round" d="M-440.127,367.115
		c0.001,2.071-1.725,2.335-3.852,2.335s-3.852-0.264-3.851-2.335c0.001-2.07,1.725-3.749,3.851-3.749
		C-441.851,363.365-440.126,365.044-440.127,367.115L-440.127,367.115z"/>
	<path fill-opacity="0.3137" d="M-439.409,349.165c1.832,2.403,2.958,5.403,2.957,9.108c0.002,8.754-6,9.872-13.402,9.871
		c-1.146,0-2.254-0.034-3.313-0.111c2.428,1.18,5.792,1.418,9.515,1.418c7.402,0,13.404-0.95,13.402-8.352
		C-430.249,355.217-434.2,351.435-439.409,349.165z"/>
</g>
</svg>
