<?xml version="1.0" encoding="utf-8"?>
<!-- Generator: Adobe Illustrator 16.0.0, SVG Export Plug-In . SVG Version: 6.00 Build 0)  -->
<!DOCTYPE svg PUBLIC "-//W3C//DTD SVG 1.1//EN" "http://www.w3.org/Graphics/SVG/1.1/DTD/svg11.dtd">
<svg version="1.1" id="Layer_1" xmlns="http://www.w3.org/2000/svg" xmlns:xlink="http://www.w3.org/1999/xlink" x="0px" y="0px"
	 width="172px" height="200px" viewBox="-416.34 287.173 172 200" enable-background="new -416.34 287.173 172 200"
	 xml:space="preserve">
<g>
	<path fill="#698000" stroke="#000000" stroke-width="2" stroke-linecap="round" stroke-linejoin="round" d="M-403.769,317.219
		c-2.447,4.239-7.867,5.692-12.108,3.244c-4.239-2.447-5.692-7.869-3.244-12.108s7.869-5.692,12.109-3.244
		C-402.774,307.558-401.321,312.98-403.769,317.219L-403.769,317.219z"/>
	<path fill="#FFFFFF" stroke="#000000" stroke-width="2" stroke-linecap="round" stroke-linejoin="round" d="M-413.944,315.077
		c-1.66,0.959-2.323,2.919-1.48,4.379c0.843,1.459,2.872,1.864,4.531,0.906c1.661-0.96,2.324-2.919,1.481-4.379
		C-410.252,314.524-412.282,314.119-413.944,315.077z"/>
	<path fill="#FFFFFF" stroke="#000000" stroke-width="2" stroke-linecap="round" stroke-linejoin="round" d="M-417.77,308.45
		c-1.66,0.959-2.323,2.919-1.48,4.378c0.842,1.459,2.871,1.865,4.531,0.906s2.323-2.919,1.481-4.378
		C-414.078,307.897-416.109,307.491-417.77,308.45z"/>
	<path fill="#FFFFFF" stroke="#000000" stroke-width="2" stroke-linecap="round" stroke-linejoin="round" d="M-417.495,312.702
		c-1.661,0.96-2.324,2.919-1.481,4.379s2.871,1.864,4.531,0.905c1.661-0.958,2.324-2.919,1.482-4.378
		S-415.834,311.743-417.495,312.702L-417.495,312.702z"/>
</g>
</svg>
