<?xml version="1.0" encoding="utf-8"?>
<!-- Generator: Adobe Illustrator 16.0.0, SVG Export Plug-In . SVG Version: 6.00 Build 0)  -->
<!DOCTYPE svg PUBLIC "-//W3C//DTD SVG 1.1//EN" "http://www.w3.org/Graphics/SVG/1.1/DTD/svg11.dtd">
<svg version="1.1" id="Layer_1" xmlns="http://www.w3.org/2000/svg" xmlns:xlink="http://www.w3.org/1999/xlink" x="0px" y="0px"
	 width="172px" height="200px" viewBox="-416.34 287.173 172 200" enable-background="new -416.34 287.173 172 200"
	 xml:space="preserve">
<g>
	<path fill="#698000" stroke="#000000" stroke-width="2" stroke-linecap="round" stroke-linejoin="round" d="M-400.226,361.106
		c0.001,7.402-5.998,8.345-13.399,8.344c-7.401,0-13.401-0.942-13.398-8.346c-0.003-7.401,6.249-11.488,13.398-13.402
		C-402.502,344.722-400.224,353.704-400.226,361.106z"/>
	<path fill="#FFFFFF" stroke="#000000" stroke-width="2" stroke-linecap="round" stroke-linejoin="round" d="M-402.869,365.281
		c0.537,2-1.063,2.7-3.116,3.25c-2.055,0.551-3.788,0.742-4.324-1.258c-0.535-2,0.695-4.066,2.749-4.618
		C-405.505,362.105-403.406,363.28-402.869,365.281L-402.869,365.281z"/>
	<path fill="#FFFFFF" stroke="#000000" stroke-width="2" stroke-linecap="round" stroke-linejoin="round" d="M-416.396,367.446
		c-0.533,2-2.268,1.809-4.322,1.258c-2.056-0.55-3.651-1.251-3.116-3.251c0.537-2,2.637-3.175,4.69-2.625
		C-417.089,363.378-415.86,365.446-416.396,367.446z"/>
	<path fill="#FFFFFF" stroke="#000000" stroke-width="2" stroke-linecap="round" stroke-linejoin="round" d="M-409.775,367.116
		c0,2.07-1.725,2.334-3.852,2.334s-3.853-0.264-3.852-2.334c0.001-2.069,1.725-3.75,3.852-3.75S-409.775,365.047-409.775,367.116
		L-409.775,367.116z"/>
	<path fill-opacity="0.3137" d="M-407.58,347.314c3.447,2.661,4.354,8.053,4.354,12.81c0.001,7.66-6.204,8.64-13.86,8.64
		c-1.662-0.001-3.246-0.055-4.724-0.204c2.265,0.725,5.1,0.888,8.181,0.888c7.401,0,13.403-0.939,13.401-8.342
		C-400.226,355.305-401.625,348.541-407.58,347.314z"/>
</g>
</svg>
