<?xml version="1.0" encoding="utf-8"?>
<!-- Generator: Adobe Illustrator 16.0.0, SVG Export Plug-In . SVG Version: 6.00 Build 0)  -->
<!DOCTYPE svg PUBLIC "-//W3C//DTD SVG 1.1//EN" "http://www.w3.org/Graphics/SVG/1.1/DTD/svg11.dtd">
<svg version="1.1" id="Layer_1" xmlns="http://www.w3.org/2000/svg" xmlns:xlink="http://www.w3.org/1999/xlink" x="0px" y="0px"
	 width="172px" height="200px" viewBox="-416.34 287.173 172 200" enable-background="new -416.34 287.173 172 200"
	 xml:space="preserve">
<g transform="translate(-200.076,-237.528)">
	<path fill="#698000" stroke="#000000" stroke-width="2" d="M-220.859,525.598c24.619-20.595,26.952,59.164,47.699,47.262
		c11.142-7.874,7.707-15.62,5.3-20.107c-3.354-6.257-6.614-8.805-1.917-8.589c3.574,0.163,20.693,14.633,5.898,29.889
		c-20.579,21.222-29.928,3.441-52.319,18.906C-235.233,606.104-220.633,525.921-220.859,525.598L-220.859,525.598z"/>
	<path fill-opacity="0.3137" d="M-157.223,561.684c-1.142,2.051-2.519,5.787-4.599,7.933c-20.579,21.222-33.523,7.448-50.341,19.013
		c-7.743,5.326-9.914,5.458-9.795,3.701c-2.6,4.378-3.989,8.671,8.026,0.37c22.393-15.465,31.73,2.45,52.099-20.856
		C-158.337,568.239-158.249,564.955-157.223,561.684z M-171.302,544.228c-1.363,1.366,1.247,4.324,2.474,6.284
		c1.604,3.954,5.653,7.17-0.03,18.109C-159.897,562.697-162.855,549.517-171.302,544.228L-171.302,544.228z"/>
</g>
</svg>
